<?xml version="1.0" encoding="UTF-8"?>
<svg width="178px" height="152px" viewBox="0 0 178 152" version="1.1" xmlns="http://www.w3.org/2000/svg" xmlns:xlink="http://www.w3.org/1999/xlink">
    <!-- Generator: Sketch 50.2 (55047) - http://www.bohemiancoding.com/sketch -->
    <title>Logo</title>
    <desc>Created with Sketch.</desc>
    <defs></defs>
    <g id="Page-1" stroke="none" stroke-width="1" fill="none" fill-rule="evenodd">
        <g id="Logo">
            <path d="M92.7304,61.8338 C95.6266,51.9703 97.0345,47.7374 98.3376,45.2757 C99.6413,42.813 100.842,42.1236 101.9747,41.6587 C103.1086,41.193 104.1753,40.9526 106.5459,41.1332 C108.9165,41.3129 112.5902,41.9127 114.3681,42.1528 C116.146,42.3932 116.0275,42.273 116.6789,40.4716 C117.3314,38.6699 118.7536,35.1878 119.4053,33.4465 C120.0575,31.7046 119.939,31.7046 118.2796,31.5249 C116.6202,31.3443 113.4199,30.984 110.5751,31.0444 C107.7305,31.1042 105.242,31.5847 103.1086,32.4858 C100.975,33.3861 99.1971,34.7073 96.1152,37.6503 C93.0334,40.5923 88.6488,45.1556 86.1597,48.3386 C83.6703,51.521 83.0779,53.3225 80.5888,62.9906 C78.0997,72.6584 73.7147,90.1921 71.1071,99.1394 C68.4993,108.0867 67.6696,108.447 65.9506,108.8072 C64.2323,109.1675 61.6255,109.5281 60.0248,109.7087 C58.4252,109.8884 57.8325,109.8884 56.6473,111.0894 C55.4619,112.2905 53.6849,114.6917 52.4994,116.1328 C51.3142,117.5742 50.7215,118.0544 50.5432,118.7155 C50.366,119.3757 50.603,120.2164 51.6102,120.5767 C52.6179,120.937 54.3952,120.8168 64.825,120.8168 C75.2557,120.8168 94.3374,120.937 104.1157,120.9974 C113.8939,121.0572 114.3681,121.0572 115.3752,120.5172 C116.383,119.9763 117.9239,118.8952 119.0495,117.0938 C120.176,115.2921 120.8872,112.7706 121.5984,110.9097 C122.3096,109.0476 123.02,107.8466 123.1385,107.0058 C123.257,106.1651 122.7827,105.6846 122.1305,104.6037 C121.4791,103.5229 120.6502,101.8414 119.7018,102.262 C118.7536,102.6821 117.6869,105.2041 115.4348,106.5857 C113.1826,107.9665 109.7462,108.2069 102.9311,108.5076 C96.1161,108.8072 85.9224,109.1675 80.7668,109.4079 C75.6111,109.648 75.4926,109.7682 76.3813,108.6275 C77.2705,107.4863 79.1663,105.0842 82.3068,96.1367 C85.4485,87.1894 89.834,71.6969 92.7304,61.8338 Z" id="Fill-323" fill="#FEFEFE" fill-rule="nonzero"></path>
            <path d="M92.7304,61.8338 C95.6266,51.9703 97.0345,47.7374 98.3376,45.2757 C99.6413,42.813 100.842,42.1236 101.9747,41.6587 C103.1086,41.193 104.1753,40.9526 106.5459,41.1332 C108.9165,41.3129 112.5902,41.9127 114.3681,42.1528 C116.146,42.3932 116.0275,42.273 116.6789,40.4716 C117.3314,38.6699 118.7536,35.1878 119.4053,33.4465 C120.0575,31.7046 119.939,31.7046 118.2796,31.5249 C116.6202,31.3443 113.4199,30.984 110.5751,31.0444 C107.7305,31.1042 105.242,31.5847 103.1086,32.4858 C100.975,33.3861 99.1971,34.7073 96.1152,37.6503 C93.0334,40.5923 88.6488,45.1556 86.1597,48.3386 C83.6703,51.521 83.0779,53.3225 80.5888,62.9906 C78.0997,72.6584 73.7147,90.1921 71.1071,99.1394 C68.4993,108.0867 67.6696,108.447 65.9506,108.8072 C64.2323,109.1675 61.6255,109.5281 60.0248,109.7087 C58.4252,109.8884 57.8325,109.8884 56.6473,111.0894 C55.4619,112.2905 53.6849,114.6917 52.4994,116.1328 C51.3142,117.5742 50.7215,118.0544 50.5432,118.7155 C50.366,119.3757 50.603,120.2164 51.6102,120.5767 C52.6179,120.937 54.3952,120.8168 64.825,120.8168 C75.2557,120.8168 94.3374,120.937 104.1157,120.9974 C113.8939,121.0572 114.3681,121.0572 115.3752,120.5172 C116.383,119.9763 117.9239,118.8952 119.0495,117.0938 C120.176,115.2921 120.8872,112.7706 121.5984,110.9097 C122.3096,109.0476 123.02,107.8466 123.1385,107.0058 C123.257,106.1651 122.7827,105.6846 122.1305,104.6037 C121.4791,103.5229 120.6502,101.8414 119.7018,102.262 C118.7536,102.6821 117.6869,105.2041 115.4348,106.5857 C113.1826,107.9665 109.7462,108.2069 102.9311,108.5076 C96.1161,108.8072 85.9224,109.1675 80.7668,109.4079 C75.6111,109.648 75.4926,109.7682 76.3813,108.6275 C77.2705,107.4863 79.1663,105.0842 82.3068,96.1367 C85.4485,87.1894 89.834,71.6969 92.7304,61.8338 Z" id="Stroke-324" stroke="#EC1D24" stroke-width="0.9998"></path>
            <path d="M0.5077,51.0879 C53.2832,66.8324 113.069,62.4897 177.2252,48.9271 L177.492,102.1591 L1.1302,105.1316 L0.5077,51.0879 Z" id="Fill-325" fill="#EC1D24" fill-rule="nonzero"></path>
            <polygon id="Fill-326" fill="#FEFEFE" fill-rule="nonzero" points="13.2251 63.2497 18.7362 64.3305 18.7362 91.1723 28.1589 91.1723 28.1589 96.7569 13.4023 96.7569"></polygon>
            <polygon id="Fill-327" fill="#FEFEFE" fill-rule="nonzero" points="75.0927 67.3945 81.849 86.8504 88.2488 67.5742 93.7599 67.5742 83.9824 96.9383 80.2483 96.7577 69.0486 67.7548"></polygon>
            <polygon id="Fill-328" fill="#FEFEFE" fill-rule="nonzero" points="107.0941 71.7182 117.05 71.3579 117.05 66.1336 101.0492 66.1336 101.0492 96.3974 116.517 96.3974 116.517 91.1732 106.5603 91.1732 106.5603 83.7872 116.3387 83.7872 116.3387 78.5633 106.9161 78.5633"></polygon>
            <polygon id="Fill-329" fill="#FEFEFE" fill-rule="nonzero" points="132.162 90.0923 141.7621 90.0923 141.7621 95.6769 127.1838 95.6769 127.1838 65.0528 132.162 65.0528"></polygon>
            <polygon id="Fill-330" fill="#FEFEFE" fill-rule="nonzero" points="150.4761 62.3491 155.6317 75.3196 160.2545 61.9888 167.0097 61.6285 158.2983 83.4261 158.2983 95.136 152.4314 95.136 152.4314 83.4261 144.976 63.0804"></polygon>
            <path d="M31.83,58.0376 C39.5845,33.8575 61.6732,16.4106 87.7102,16.4106 C112.773,16.4106 134.1763,32.5748 142.6604,55.3481 C146.242,54.7834 149.8409,54.1822 153.4539,53.5455 L151.193,48.2978 L155.9929,44.8752 L148.1701,31.5444 L142.3032,34.7873 L137.3256,29.0225 L141.0591,22.8979 L129.951,13.9841 L125.1616,18.8373 L118.7697,15.0978 L120.8728,7.1455 L105.6921,3.0237 L103.7237,10.4674 L95.0123,8.4854 L95.0123,0.5595 L79.7228,0.5595 L80.612,8.666 L72.078,10.2869 L69.7669,3.2612 L55.5441,8.3057 L57.8543,15.5111 L51.632,20.0145 L45.7643,14.07 L34.5635,23.7982 L39.1848,29.9236 L34.0291,36.0481 L27.2728,32.0856 L19.628,45.2355 L26.3841,50.0995 L22.8105,56.4984 C25.7973,57.0662 28.804,57.5784 31.83,58.0376" id="Fill-331" fill="#EC1D24" fill-rule="nonzero"></path>
            <path d="M87.7102,137.8283 C64.7822,137.8283 44.9159,124.2991 35.2038,104.5573 L22.3107,104.7752 L18.7467,107.0245 L26.3915,120.1747 L32.6138,117.6525 L37.5923,124.4984 L33.5033,129.0018 L45.5925,138.7303 L49.1483,134.5864 L56.7933,139.2703 L54.6597,144.6751 L68.7051,150.62 L71.3716,144.4946 L79.9048,146.296 L79.7299,151.3428 L95.1977,151.3428 L95.3751,146.4791 L104.0866,144.6774 L106.3982,149.722 L119.5544,143.4169 L118.1319,138.1929 L126.1324,134.7695 L129.6882,138.5532 L141.7774,128.1041 L138.2216,124.6815 L143.5553,117.8356 L148.362,120.3545 L155.651,107.1135 L150.8511,104.1411 L151.7752,102.5923 L141.0605,102.7734 C131.6886,123.4797 111.3234,137.8283 87.7102,137.8283" id="Fill-332" fill="#EC1D24" fill-rule="nonzero"></path>
            <path d="M39.8039,81.4441 C39.8039,76.1717 43.9629,71.897 49.0927,71.897 C54.2234,71.897 58.3824,76.1717 58.3824,81.4441 C58.3824,86.7171 54.2234,90.9921 49.0927,90.9921 C43.9629,90.9921 39.8039,86.7171 39.8039,81.4441 Z M49.0927,97.2986 C57.6131,97.2986 64.5186,90.2003 64.5186,81.4441 C64.5186,72.6879 57.6131,65.5897 49.0927,65.5897 C40.5732,65.5897 33.6669,72.6879 33.6669,81.4441 C33.6669,90.2003 40.5732,97.2986 49.0927,97.2986 Z" id="Fill-333" fill="#FEFEFE" fill-rule="nonzero"></path>
            <g id="R" transform="translate(161.500000, 25.500000)" fill="#EC1D24" font-family="ArialMT, Arial" font-size="12.561" font-weight="normal">
                <text>
                    <tspan x="0.3475" y="11.2581078">R</tspan>
                </text>
            </g>
            <path d="M166.11506,23 C171.148945,23 175.23,27.081 175.23,32.1159 C175.23,37.1505 171.148945,41.2318 166.11506,41.2318 C161.081175,41.2318 157,37.1505 157,32.1159 C157,27.081 161.081175,23 166.11506,23 Z" id="Stroke-334" stroke="#EC1D24" stroke-width="0.9998"></path>
        </g>
    </g>
</svg>